<?xml version="1.0" encoding="UTF-8"?>
<!DOCTYPE svg PUBLIC "-//W3C//DTD SVG 1.1//EN" "http://www.w3.org/Graphics/SVG/1.1/DTD/svg11.dtd">
<svg xmlns="http://www.w3.org/2000/svg" version="1.1" width="256px" height="256px" style="shape-rendering:geometricPrecision; text-rendering:geometricPrecision; image-rendering:optimizeQuality; fill-rule:evenodd; clip-rule:evenodd" xmlns:xlink="http://www.w3.org/1999/xlink">
<g><path style="opacity:1" fill="#2a2927" d="M -0.5,-0.5 C 0.166667,-0.5 0.833333,-0.5 1.5,-0.5C 3.66749,11.84 10.6675,16.0066 22.5,12C 26.7996,8.89793 29.1329,4.73127 29.5,-0.5C 35.8333,-0.5 42.1667,-0.5 48.5,-0.5C 48.5,1.16667 48.5,2.83333 48.5,4.5C 45.5,4.5 42.5,4.5 39.5,4.5C 39.5,7.16667 39.5,9.83333 39.5,12.5C 49.1667,12.5 58.8333,12.5 68.5,12.5C 68.5,9.83333 68.5,7.16667 68.5,4.5C 65.5,4.5 62.5,4.5 59.5,4.5C 59.5,2.83333 59.5,1.16667 59.5,-0.5C 64.8333,-0.5 70.1667,-0.5 75.5,-0.5C 77.6675,11.84 84.6675,16.0066 96.5,12C 100.8,8.89793 103.133,4.73127 103.5,-0.5C 109.833,-0.5 116.167,-0.5 122.5,-0.5C 122.5,1.16667 122.5,2.83333 122.5,4.5C 119.5,4.5 116.5,4.5 113.5,4.5C 113.5,7.16667 113.5,9.83333 113.5,12.5C 123.167,12.5 132.833,12.5 142.5,12.5C 142.5,9.83333 142.5,7.16667 142.5,4.5C 139.5,4.5 136.5,4.5 133.5,4.5C 133.5,2.83333 133.5,1.16667 133.5,-0.5C 138.833,-0.5 144.167,-0.5 149.5,-0.5C 151.667,11.84 158.667,16.0066 170.5,12C 174.8,8.89793 177.133,4.73127 177.5,-0.5C 183.833,-0.5 190.167,-0.5 196.5,-0.5C 196.5,1.16667 196.5,2.83333 196.5,4.5C 193.5,4.5 190.5,4.5 187.5,4.5C 187.5,7.16667 187.5,9.83333 187.5,12.5C 197.167,12.5 206.833,12.5 216.5,12.5C 216.5,9.83333 216.5,7.16667 216.5,4.5C 213.5,4.5 210.5,4.5 207.5,4.5C 207.5,2.83333 207.5,1.16667 207.5,-0.5C 212.833,-0.5 218.167,-0.5 223.5,-0.5C 225.667,11.84 232.667,16.0066 244.5,12C 248.8,8.89793 251.133,4.73127 251.5,-0.5C 252.833,-0.5 254.167,-0.5 255.5,-0.5C 255.5,84.8333 255.5,170.167 255.5,255.5C 254.5,255.5 253.5,255.5 252.5,255.5C 250.47,242.269 243.137,237.436 230.5,241C 225.605,244.623 223.272,249.456 223.5,255.5C 218.167,255.5 212.833,255.5 207.5,255.5C 207.5,250.167 207.5,244.833 207.5,239.5C 204.813,239.336 202.146,239.503 199.5,240C 196.479,242.761 192.979,244.594 189,245.5C 188.182,248.227 188.348,250.894 189.5,253.5C 191.729,252.423 194.063,251.756 196.5,251.5C 196.5,252.833 196.5,254.167 196.5,255.5C 190.5,255.5 184.5,255.5 178.5,255.5C 176.47,242.269 169.137,237.436 156.5,241C 151.605,244.623 149.272,249.456 149.5,255.5C 144.167,255.5 138.833,255.5 133.5,255.5C 133.5,250.167 133.5,244.833 133.5,239.5C 130.813,239.336 128.146,239.503 125.5,240C 122.479,242.761 118.979,244.594 115,245.5C 114.182,248.227 114.348,250.894 115.5,253.5C 117.729,252.423 120.063,251.756 122.5,251.5C 122.5,252.833 122.5,254.167 122.5,255.5C 116.5,255.5 110.5,255.5 104.5,255.5C 102.47,242.269 95.1366,237.436 82.5,241C 77.6051,244.623 75.2717,249.456 75.5,255.5C 70.1667,255.5 64.8333,255.5 59.5,255.5C 59.5,250.167 59.5,244.833 59.5,239.5C 56.8127,239.336 54.146,239.503 51.5,240C 48.4785,242.761 44.9785,244.594 41,245.5C 40.1816,248.227 40.3483,250.894 41.5,253.5C 43.7294,252.423 46.0628,251.756 48.5,251.5C 48.5,252.833 48.5,254.167 48.5,255.5C 42.5,255.5 36.5,255.5 30.5,255.5C 28.4699,242.269 21.1366,237.436 8.5,241C 3.60506,244.623 1.27172,249.456 1.5,255.5C 0.833333,255.5 0.166667,255.5 -0.5,255.5C -0.5,215.167 -0.5,174.833 -0.5,134.5C 1.19065,138.008 3.52399,141.175 6.5,144C 20.3248,147.207 27.6581,141.54 28.5,127C 28.4794,113.306 21.8127,106.973 8.5,108C 4.59151,110.406 1.59151,113.572 -0.5,117.5C -0.5,78.1667 -0.5,38.8333 -0.5,-0.5 Z"/></g>
<g><path style="opacity:1" fill="#f7f7f7" d="M 1.5,-0.5 C 5.16667,-0.5 8.83333,-0.5 12.5,-0.5C 12.0217,2.27757 13.0217,4.27757 15.5,5.5C 17.9783,4.27757 18.9783,2.27757 18.5,-0.5C 22.1667,-0.5 25.8333,-0.5 29.5,-0.5C 29.1329,4.73127 26.7996,8.89793 22.5,12C 10.6675,16.0066 3.66749,11.84 1.5,-0.5 Z"/></g>
<g><path style="opacity:1" fill="#2b2a28" d="M 12.5,-0.5 C 14.5,-0.5 16.5,-0.5 18.5,-0.5C 18.9783,2.27757 17.9783,4.27757 15.5,5.5C 13.0217,4.27757 12.0217,2.27757 12.5,-0.5 Z"/></g>
<g><path style="opacity:1" fill="#f8f8f8" d="M 48.5,-0.5 C 52.1667,-0.5 55.8333,-0.5 59.5,-0.5C 59.5,1.16667 59.5,2.83333 59.5,4.5C 62.5,4.5 65.5,4.5 68.5,4.5C 68.5,7.16667 68.5,9.83333 68.5,12.5C 58.8333,12.5 49.1667,12.5 39.5,12.5C 39.5,9.83333 39.5,7.16667 39.5,4.5C 42.5,4.5 45.5,4.5 48.5,4.5C 48.5,2.83333 48.5,1.16667 48.5,-0.5 Z"/></g>
<g><path style="opacity:1" fill="#f7f7f7" d="M 75.5,-0.5 C 79.1667,-0.5 82.8333,-0.5 86.5,-0.5C 86.0217,2.27757 87.0217,4.27757 89.5,5.5C 91.9783,4.27757 92.9783,2.27757 92.5,-0.5C 96.1667,-0.5 99.8333,-0.5 103.5,-0.5C 103.133,4.73127 100.8,8.89793 96.5,12C 84.6675,16.0066 77.6675,11.84 75.5,-0.5 Z"/></g>
<g><path style="opacity:1" fill="#2b2a28" d="M 86.5,-0.5 C 88.5,-0.5 90.5,-0.5 92.5,-0.5C 92.9783,2.27757 91.9783,4.27757 89.5,5.5C 87.0217,4.27757 86.0217,2.27757 86.5,-0.5 Z"/></g>
<g><path style="opacity:1" fill="#f8f8f8" d="M 122.5,-0.5 C 126.167,-0.5 129.833,-0.5 133.5,-0.5C 133.5,1.16667 133.5,2.83333 133.5,4.5C 136.5,4.5 139.5,4.5 142.5,4.5C 142.5,7.16667 142.5,9.83333 142.5,12.5C 132.833,12.5 123.167,12.5 113.5,12.5C 113.5,9.83333 113.5,7.16667 113.5,4.5C 116.5,4.5 119.5,4.5 122.5,4.5C 122.5,2.83333 122.5,1.16667 122.5,-0.5 Z"/></g>
<g><path style="opacity:1" fill="#f7f7f7" d="M 149.5,-0.5 C 153.167,-0.5 156.833,-0.5 160.5,-0.5C 160.022,2.27757 161.022,4.27757 163.5,5.5C 165.978,4.27757 166.978,2.27757 166.5,-0.5C 170.167,-0.5 173.833,-0.5 177.5,-0.5C 177.133,4.73127 174.8,8.89793 170.5,12C 158.667,16.0066 151.667,11.84 149.5,-0.5 Z"/></g>
<g><path style="opacity:1" fill="#2b2a28" d="M 160.5,-0.5 C 162.5,-0.5 164.5,-0.5 166.5,-0.5C 166.978,2.27757 165.978,4.27757 163.5,5.5C 161.022,4.27757 160.022,2.27757 160.5,-0.5 Z"/></g>
<g><path style="opacity:1" fill="#f8f8f8" d="M 196.5,-0.5 C 200.167,-0.5 203.833,-0.5 207.5,-0.5C 207.5,1.16667 207.5,2.83333 207.5,4.5C 210.5,4.5 213.5,4.5 216.5,4.5C 216.5,7.16667 216.5,9.83333 216.5,12.5C 206.833,12.5 197.167,12.5 187.5,12.5C 187.5,9.83333 187.5,7.16667 187.5,4.5C 190.5,4.5 193.5,4.5 196.5,4.5C 196.5,2.83333 196.5,1.16667 196.5,-0.5 Z"/></g>
<g><path style="opacity:1" fill="#f7f7f7" d="M 223.5,-0.5 C 227.167,-0.5 230.833,-0.5 234.5,-0.5C 234.022,2.27757 235.022,4.27757 237.5,5.5C 239.978,4.27757 240.978,2.27757 240.5,-0.5C 244.167,-0.5 247.833,-0.5 251.5,-0.5C 251.133,4.73127 248.8,8.89793 244.5,12C 232.667,16.0066 225.667,11.84 223.5,-0.5 Z"/></g>
<g><path style="opacity:1" fill="#2b2a28" d="M 234.5,-0.5 C 236.5,-0.5 238.5,-0.5 240.5,-0.5C 240.978,2.27757 239.978,4.27757 237.5,5.5C 235.022,4.27757 234.022,2.27757 234.5,-0.5 Z"/></g>
<g><path style="opacity:1" fill="#f6f6f6" d="M 10.5,41.5 C 19.4623,39.7303 25.6289,43.0636 29,51.5C 32.9727,62.9088 30.1393,72.0754 20.5,79C 10.9942,81.3315 4.82755,77.8315 2,68.5C 1.33333,62.8333 1.33333,57.1667 2,51.5C 3.97791,47.3619 6.81124,44.0286 10.5,41.5 Z"/></g>
<g><path style="opacity:1" fill="#f8f8f8" d="M 51.5,41.5 C 54.1667,41.5 56.8333,41.5 59.5,41.5C 59.5,51.1667 59.5,60.8333 59.5,70.5C 62.5,70.5 65.5,70.5 68.5,70.5C 68.5,73.1667 68.5,75.8333 68.5,78.5C 58.8333,78.5 49.1667,78.5 39.5,78.5C 39.5,75.8333 39.5,73.1667 39.5,70.5C 42.5,70.5 45.5,70.5 48.5,70.5C 48.5,64.8333 48.5,59.1667 48.5,53.5C 46.0628,53.7563 43.7294,54.4229 41.5,55.5C 40.3483,52.8938 40.1816,50.2272 41,47.5C 45.2219,46.6426 48.7219,44.6426 51.5,41.5 Z"/></g>
<g><path style="opacity:1" fill="#f6f6f6" d="M 84.5,41.5 C 93.4623,39.7303 99.6289,43.0636 103,51.5C 106.973,62.9088 104.139,72.0754 94.5,79C 84.9942,81.3315 78.8276,77.8315 76,68.5C 75.3333,62.8333 75.3333,57.1667 76,51.5C 77.9779,47.3619 80.8112,44.0286 84.5,41.5 Z"/></g>
<g><path style="opacity:1" fill="#f8f8f8" d="M 125.5,41.5 C 128.167,41.5 130.833,41.5 133.5,41.5C 133.5,51.1667 133.5,60.8333 133.5,70.5C 136.5,70.5 139.5,70.5 142.5,70.5C 142.5,73.1667 142.5,75.8333 142.5,78.5C 132.833,78.5 123.167,78.5 113.5,78.5C 113.5,75.8333 113.5,73.1667 113.5,70.5C 116.5,70.5 119.5,70.5 122.5,70.5C 122.5,64.8333 122.5,59.1667 122.5,53.5C 120.063,53.7563 117.729,54.4229 115.5,55.5C 114.348,52.8938 114.182,50.2272 115,47.5C 119.222,46.6426 122.722,44.6426 125.5,41.5 Z"/></g>
<g><path style="opacity:1" fill="#f6f6f6" d="M 158.5,41.5 C 167.462,39.7303 173.629,43.0636 177,51.5C 180.973,62.9088 178.139,72.0754 168.5,79C 158.994,81.3315 152.828,77.8315 150,68.5C 149.333,62.8333 149.333,57.1667 150,51.5C 151.978,47.3619 154.811,44.0286 158.5,41.5 Z"/></g>
<g><path style="opacity:1" fill="#f8f8f8" d="M 199.5,41.5 C 202.167,41.5 204.833,41.5 207.5,41.5C 207.5,51.1667 207.5,60.8333 207.5,70.5C 210.5,70.5 213.5,70.5 216.5,70.5C 216.5,73.1667 216.5,75.8333 216.5,78.5C 206.833,78.5 197.167,78.5 187.5,78.5C 187.5,75.8333 187.5,73.1667 187.5,70.5C 190.5,70.5 193.5,70.5 196.5,70.5C 196.5,64.8333 196.5,59.1667 196.5,53.5C 194.063,53.7563 191.729,54.4229 189.5,55.5C 188.348,52.8938 188.182,50.2272 189,47.5C 193.222,46.6426 196.722,44.6426 199.5,41.5 Z"/></g>
<g><path style="opacity:1" fill="#f6f6f6" d="M 232.5,41.5 C 241.462,39.7303 247.629,43.0636 251,51.5C 254.973,62.9088 252.139,72.0754 242.5,79C 232.994,81.3315 226.828,77.8315 224,68.5C 223.333,62.8333 223.333,57.1667 224,51.5C 225.978,47.3619 228.811,44.0286 232.5,41.5 Z"/></g>
<g><path style="opacity:1" fill="#2e2d2b" d="M 14.5,49.5 C 18.9001,50.8263 20.5667,53.8263 19.5,58.5C 19.3845,62.22 18.8845,65.8867 18,69.5C 16.3333,72.1667 14.6667,72.1667 13,69.5C 12.3333,63.5 12.3333,57.5 13,51.5C 13.7172,50.9558 14.2172,50.2891 14.5,49.5 Z"/></g>
<g><path style="opacity:1" fill="#2e2d2b" d="M 88.5,49.5 C 92.9001,50.8263 94.5667,53.8263 93.5,58.5C 93.3845,62.22 92.8845,65.8867 92,69.5C 90.3333,72.1667 88.6667,72.1667 87,69.5C 86.3333,63.5 86.3333,57.5 87,51.5C 87.7172,50.9558 88.2172,50.2891 88.5,49.5 Z"/></g>
<g><path style="opacity:1" fill="#2e2d2b" d="M 162.5,49.5 C 166.9,50.8263 168.567,53.8263 167.5,58.5C 167.384,62.22 166.884,65.8867 166,69.5C 164.333,72.1667 162.667,72.1667 161,69.5C 160.333,63.5 160.333,57.5 161,51.5C 161.717,50.9558 162.217,50.2891 162.5,49.5 Z"/></g>
<g><path style="opacity:1" fill="#2e2d2b" d="M 236.5,49.5 C 240.9,50.8263 242.567,53.8263 241.5,58.5C 241.384,62.22 240.884,65.8867 240,69.5C 238.333,72.1667 236.667,72.1667 235,69.5C 234.333,63.5 234.333,57.5 235,51.5C 235.717,50.9558 236.217,50.2891 236.5,49.5 Z"/></g>
<g><path style="opacity:1" fill="#f6f6f6" d="M -0.5,134.5 C -0.5,128.833 -0.5,123.167 -0.5,117.5C 1.59151,113.572 4.59151,110.406 8.5,108C 21.8127,106.973 28.4794,113.306 28.5,127C 27.6581,141.54 20.3248,147.207 6.5,144C 3.52399,141.175 1.19065,138.008 -0.5,134.5 Z"/></g>
<g><path style="opacity:1" fill="#9b1212" d="M 46.5,107.5 C 56.7227,105.266 63.056,109.099 65.5,119C 65.3852,121.732 64.5519,124.232 63,126.5C 59.5916,129.453 56.0916,132.287 52.5,135C 56.8206,135.499 61.1539,135.666 65.5,135.5C 65.5,138.5 65.5,141.5 65.5,144.5C 55.8333,144.5 46.1667,144.5 36.5,144.5C 36.3359,141.813 36.5026,139.146 37,136.5C 43.4991,132.421 49.1658,127.421 54,121.5C 55.0723,118.447 54.0723,116.447 51,115.5C 48.4253,117.092 46.2586,119.092 44.5,121.5C 37.9635,121.819 36.1302,119.153 39,113.5C 41.1141,110.879 43.6141,108.879 46.5,107.5 Z"/></g>
<g><path style="opacity:1" fill="#9a1312" d="M 86.5,107.5 C 96.2682,107.09 102.102,111.757 104,121.5C 106.098,131.552 102.932,139.385 94.5,145C 85.0318,147.349 78.8651,143.849 76,134.5C 75.1304,128.083 75.4638,121.749 77,115.5C 79.1608,111.495 82.3275,108.829 86.5,107.5 Z"/></g>
<g><path style="opacity:1" fill="#9b1212" d="M 121.5,107.5 C 131.723,105.266 138.056,109.099 140.5,119C 140.385,121.732 139.552,124.232 138,126.5C 134.592,129.453 131.092,132.287 127.5,135C 131.821,135.499 136.154,135.666 140.5,135.5C 140.5,138.5 140.5,141.5 140.5,144.5C 130.833,144.5 121.167,144.5 111.5,144.5C 111.336,141.813 111.503,139.146 112,136.5C 118.499,132.421 124.166,127.421 129,121.5C 130.072,118.447 129.072,116.447 126,115.5C 123.425,117.092 121.259,119.092 119.5,121.5C 112.964,121.819 111.13,119.153 114,113.5C 116.114,110.879 118.614,108.879 121.5,107.5 Z"/></g>
<g><path style="opacity:1" fill="#9a1312" d="M 161.5,107.5 C 171.268,107.09 177.102,111.757 179,121.5C 181.098,131.552 177.932,139.385 169.5,145C 160.032,147.349 153.865,143.849 151,134.5C 150.13,128.083 150.464,121.749 152,115.5C 154.161,111.495 157.328,108.829 161.5,107.5 Z"/></g>
<g><path style="opacity:1" fill="#9b1212" d="M 197.5,107.5 C 207.723,105.266 214.056,109.099 216.5,119C 216.385,121.732 215.552,124.232 214,126.5C 210.592,129.453 207.092,132.287 203.5,135C 207.821,135.499 212.154,135.666 216.5,135.5C 216.5,138.5 216.5,141.5 216.5,144.5C 206.833,144.5 197.167,144.5 187.5,144.5C 187.336,141.813 187.503,139.146 188,136.5C 194.499,132.421 200.166,127.421 205,121.5C 206.072,118.447 205.072,116.447 202,115.5C 199.425,117.092 197.259,119.092 195.5,121.5C 188.964,121.819 187.13,119.153 190,113.5C 192.114,110.879 194.614,108.879 197.5,107.5 Z"/></g>
<g><path style="opacity:1" fill="#f6f6f6" d="M 234.5,107.5 C 243.462,105.73 249.629,109.064 253,117.5C 256.973,128.909 254.139,138.075 244.5,145C 234.994,147.331 228.828,143.831 226,134.5C 225.333,128.833 225.333,123.167 226,117.5C 227.978,113.362 230.811,110.029 234.5,107.5 Z"/></g>
<g><path style="opacity:1" fill="#2e2d2b" d="M 12.5,115.5 C 16.9001,116.826 18.5667,119.826 17.5,124.5C 17.3845,128.22 16.8845,131.887 16,135.5C 14.3333,138.167 12.6667,138.167 11,135.5C 10.3333,129.5 10.3333,123.5 11,117.5C 11.7172,116.956 12.2172,116.289 12.5,115.5 Z"/></g>
<g><path style="opacity:1" fill="#2e2826" d="M 88.5,115.5 C 90.5922,115.561 92.0922,116.561 93,118.5C 93.6667,123.5 93.6667,128.5 93,133.5C 91.7892,137.462 89.7892,138.129 87,135.5C 86.3333,129.5 86.3333,123.5 87,117.5C 87.7172,116.956 88.2172,116.289 88.5,115.5 Z"/></g>
<g><path style="opacity:1" fill="#2e2826" d="M 163.5,115.5 C 165.592,115.561 167.092,116.561 168,118.5C 168.667,123.5 168.667,128.5 168,133.5C 166.789,137.462 164.789,138.129 162,135.5C 161.333,129.5 161.333,123.5 162,117.5C 162.717,116.956 163.217,116.289 163.5,115.5 Z"/></g>
<g><path style="opacity:1" fill="#2e2d2b" d="M 238.5,115.5 C 242.9,116.826 244.567,119.826 243.5,124.5C 243.384,128.22 242.884,131.887 242,135.5C 240.333,138.167 238.667,138.167 237,135.5C 236.333,129.5 236.333,123.5 237,117.5C 237.717,116.956 238.217,116.289 238.5,115.5 Z"/></g>
<g><path style="opacity:1" fill="#f6f6f6" d="M 10.5,173.5 C 19.4623,171.73 25.6289,175.064 29,183.5C 32.9727,194.909 30.1393,204.075 20.5,211C 10.9942,213.331 4.82755,209.831 2,200.5C 1.33333,194.833 1.33333,189.167 2,183.5C 3.97791,179.362 6.81124,176.029 10.5,173.5 Z"/></g>
<g><path style="opacity:1" fill="#f8f8f8" d="M 51.5,173.5 C 54.1667,173.5 56.8333,173.5 59.5,173.5C 59.5,183.167 59.5,192.833 59.5,202.5C 62.5,202.5 65.5,202.5 68.5,202.5C 68.5,205.167 68.5,207.833 68.5,210.5C 58.8333,210.5 49.1667,210.5 39.5,210.5C 39.5,207.833 39.5,205.167 39.5,202.5C 42.5,202.5 45.5,202.5 48.5,202.5C 48.5,196.833 48.5,191.167 48.5,185.5C 46.0628,185.756 43.7294,186.423 41.5,187.5C 40.3483,184.894 40.1816,182.227 41,179.5C 45.2219,178.643 48.7219,176.643 51.5,173.5 Z"/></g>
<g><path style="opacity:1" fill="#f6f6f6" d="M 84.5,173.5 C 93.4623,171.73 99.6289,175.064 103,183.5C 106.973,194.909 104.139,204.075 94.5,211C 84.9942,213.331 78.8276,209.831 76,200.5C 75.3333,194.833 75.3333,189.167 76,183.5C 77.9779,179.362 80.8112,176.029 84.5,173.5 Z"/></g>
<g><path style="opacity:1" fill="#f8f8f8" d="M 125.5,173.5 C 128.167,173.5 130.833,173.5 133.5,173.5C 133.5,183.167 133.5,192.833 133.5,202.5C 136.5,202.5 139.5,202.5 142.5,202.5C 142.5,205.167 142.5,207.833 142.5,210.5C 132.833,210.5 123.167,210.5 113.5,210.5C 113.5,207.833 113.5,205.167 113.5,202.5C 116.5,202.5 119.5,202.5 122.5,202.5C 122.5,196.833 122.5,191.167 122.5,185.5C 120.063,185.756 117.729,186.423 115.5,187.5C 114.348,184.894 114.182,182.227 115,179.5C 119.222,178.643 122.722,176.643 125.5,173.5 Z"/></g>
<g><path style="opacity:1" fill="#f6f6f6" d="M 158.5,173.5 C 167.462,171.73 173.629,175.064 177,183.5C 180.973,194.909 178.139,204.075 168.5,211C 158.994,213.331 152.828,209.831 150,200.5C 149.333,194.833 149.333,189.167 150,183.5C 151.978,179.362 154.811,176.029 158.5,173.5 Z"/></g>
<g><path style="opacity:1" fill="#f8f8f8" d="M 199.5,173.5 C 202.167,173.5 204.833,173.5 207.5,173.5C 207.5,183.167 207.5,192.833 207.5,202.5C 210.5,202.5 213.5,202.5 216.5,202.5C 216.5,205.167 216.5,207.833 216.5,210.5C 206.833,210.5 197.167,210.5 187.5,210.5C 187.5,207.833 187.5,205.167 187.5,202.5C 190.5,202.5 193.5,202.5 196.5,202.5C 196.5,196.833 196.5,191.167 196.5,185.5C 194.063,185.756 191.729,186.423 189.5,187.5C 188.348,184.894 188.182,182.227 189,179.5C 193.222,178.643 196.722,176.643 199.5,173.5 Z"/></g>
<g><path style="opacity:1" fill="#f6f6f6" d="M 232.5,173.5 C 241.462,171.73 247.629,175.064 251,183.5C 254.973,194.909 252.139,204.075 242.5,211C 232.994,213.331 226.828,209.831 224,200.5C 223.333,194.833 223.333,189.167 224,183.5C 225.978,179.362 228.811,176.029 232.5,173.5 Z"/></g>
<g><path style="opacity:1" fill="#2e2d2b" d="M 14.5,181.5 C 18.9001,182.826 20.5667,185.826 19.5,190.5C 19.3845,194.22 18.8845,197.887 18,201.5C 16.3333,204.167 14.6667,204.167 13,201.5C 12.3333,195.5 12.3333,189.5 13,183.5C 13.7172,182.956 14.2172,182.289 14.5,181.5 Z"/></g>
<g><path style="opacity:1" fill="#2e2d2b" d="M 88.5,181.5 C 92.9001,182.826 94.5667,185.826 93.5,190.5C 93.3845,194.22 92.8845,197.887 92,201.5C 90.3333,204.167 88.6667,204.167 87,201.5C 86.3333,195.5 86.3333,189.5 87,183.5C 87.7172,182.956 88.2172,182.289 88.5,181.5 Z"/></g>
<g><path style="opacity:1" fill="#2e2d2b" d="M 162.5,181.5 C 166.9,182.826 168.567,185.826 167.5,190.5C 167.384,194.22 166.884,197.887 166,201.5C 164.333,204.167 162.667,204.167 161,201.5C 160.333,195.5 160.333,189.5 161,183.5C 161.717,182.956 162.217,182.289 162.5,181.5 Z"/></g>
<g><path style="opacity:1" fill="#2e2d2b" d="M 236.5,181.5 C 240.9,182.826 242.567,185.826 241.5,190.5C 241.384,194.22 240.884,197.887 240,201.5C 238.333,204.167 236.667,204.167 235,201.5C 234.333,195.5 234.333,189.5 235,183.5C 235.717,182.956 236.217,182.289 236.5,181.5 Z"/></g>
<g><path style="opacity:1" fill="#f7f7f7" d="M 30.5,255.5 C 26.8333,255.5 23.1667,255.5 19.5,255.5C 20.2269,251.776 18.8936,249.109 15.5,247.5C 12.828,249.425 11.828,252.092 12.5,255.5C 8.83333,255.5 5.16667,255.5 1.5,255.5C 1.27172,249.456 3.60506,244.623 8.5,241C 21.1366,237.436 28.4699,242.269 30.5,255.5 Z"/></g>
<g><path style="opacity:1" fill="#f8f8f8" d="M 59.5,255.5 C 55.8333,255.5 52.1667,255.5 48.5,255.5C 48.5,254.167 48.5,252.833 48.5,251.5C 46.0628,251.756 43.7294,252.423 41.5,253.5C 40.3483,250.894 40.1816,248.227 41,245.5C 44.9785,244.594 48.4785,242.761 51.5,240C 54.146,239.503 56.8127,239.336 59.5,239.5C 59.5,244.833 59.5,250.167 59.5,255.5 Z"/></g>
<g><path style="opacity:1" fill="#f7f7f7" d="M 104.5,255.5 C 100.833,255.5 97.1667,255.5 93.5,255.5C 94.2269,251.776 92.8936,249.109 89.5,247.5C 86.828,249.425 85.828,252.092 86.5,255.5C 82.8333,255.5 79.1667,255.5 75.5,255.5C 75.2717,249.456 77.6051,244.623 82.5,241C 95.1366,237.436 102.47,242.269 104.5,255.5 Z"/></g>
<g><path style="opacity:1" fill="#f8f8f8" d="M 133.5,255.5 C 129.833,255.5 126.167,255.5 122.5,255.5C 122.5,254.167 122.5,252.833 122.5,251.5C 120.063,251.756 117.729,252.423 115.5,253.5C 114.348,250.894 114.182,248.227 115,245.5C 118.979,244.594 122.479,242.761 125.5,240C 128.146,239.503 130.813,239.336 133.5,239.5C 133.5,244.833 133.5,250.167 133.5,255.5 Z"/></g>
<g><path style="opacity:1" fill="#f7f7f7" d="M 178.5,255.5 C 174.833,255.5 171.167,255.5 167.5,255.5C 168.227,251.776 166.894,249.109 163.5,247.5C 160.828,249.425 159.828,252.092 160.5,255.5C 156.833,255.5 153.167,255.5 149.5,255.5C 149.272,249.456 151.605,244.623 156.5,241C 169.137,237.436 176.47,242.269 178.5,255.5 Z"/></g>
<g><path style="opacity:1" fill="#f8f8f8" d="M 207.5,255.5 C 203.833,255.5 200.167,255.5 196.5,255.5C 196.5,254.167 196.5,252.833 196.5,251.5C 194.063,251.756 191.729,252.423 189.5,253.5C 188.348,250.894 188.182,248.227 189,245.5C 192.979,244.594 196.479,242.761 199.5,240C 202.146,239.503 204.813,239.336 207.5,239.5C 207.5,244.833 207.5,250.167 207.5,255.5 Z"/></g>
<g><path style="opacity:1" fill="#f7f7f7" d="M 252.5,255.5 C 248.833,255.5 245.167,255.5 241.5,255.5C 242.227,251.776 240.894,249.109 237.5,247.5C 234.828,249.425 233.828,252.092 234.5,255.5C 230.833,255.5 227.167,255.5 223.5,255.5C 223.272,249.456 225.605,244.623 230.5,241C 243.137,237.436 250.47,242.269 252.5,255.5 Z"/></g>
<g><path style="opacity:1" fill="#323130" d="M 19.5,255.5 C 17.1667,255.5 14.8333,255.5 12.5,255.5C 11.828,252.092 12.828,249.425 15.5,247.5C 18.8936,249.109 20.2269,251.776 19.5,255.5 Z"/></g>
<g><path style="opacity:1" fill="#323130" d="M 93.5,255.5 C 91.1667,255.5 88.8333,255.5 86.5,255.5C 85.828,252.092 86.828,249.425 89.5,247.5C 92.8936,249.109 94.2269,251.776 93.5,255.5 Z"/></g>
<g><path style="opacity:1" fill="#323130" d="M 167.5,255.5 C 165.167,255.5 162.833,255.5 160.5,255.5C 159.828,252.092 160.828,249.425 163.5,247.5C 166.894,249.109 168.227,251.776 167.5,255.5 Z"/></g>
<g><path style="opacity:1" fill="#323130" d="M 241.5,255.5 C 239.167,255.5 236.833,255.5 234.5,255.5C 233.828,252.092 234.828,249.425 237.5,247.5C 240.894,249.109 242.227,251.776 241.5,255.5 Z"/></g>
</svg>
